<svg id="Capa_1" enable-background="new 0 0 496.66 496.66" height="512" viewBox="0 0 496.66 496.66" width="512" xmlns="http://www.w3.org/2000/svg"><g><path d="m262.621 183.682c-29.351-10.245-50.747 10.356-69.432 29.732-16.278 15.576-32.616 31.016-49.729 45.607-10.348 8.347-22.988 16.739-11.47 30.8 12.477 11.224 22.464-.678 31.041-9.787 17.949-18.147 47.629-50.472 65.348-69.532 8.362-6.935 17.611-10.473 28.137-7.409 38.196 15.412 55.601 57.917 85.161 84.968 11.567 10.677 26.708-8.594 13.371-17.249-34.321-24.256-51.064-71.701-92.427-87.13z"/><path d="m495.515 232.221c-6.887-224.069-320.441-321.696-445.53-130.052-18.507 27.891-31.923 59.247-40.697 91.446-10.684 36.382-10.902 75.626-1.125 112.211 37.739 147.586 231.529 248.76 363.321 153.964 9.009-6.27-.745-20.208-9.701-13.862-11.156 7.805-23.087 14.516-35.666 19.746-51.031 21.353-110.079 16.58-159.979-6.171-87.352-38.542-156.068-131.924-142.902-230.006 20.868-125.804 117.136-219.557 249.503-198.52 124.615 19.36 218.054 129.814 193.74 257.725-3.306 18.358-8.497 36.825-15.097 54.289-2.918 7.534-6.561 16.641-10.021 23.923-2.74 6.053-9.562 16.136-1.091 20.81 8.827 5.069 13.583-6.671 16.925-12.648 6.245-10.72 11.974-23.034 16.841-34.44 14.291-34.091 22.598-71.349 21.479-108.415z"/></g></svg>